<svg width="1315" height="1773" viewBox="0 0 1315 1773" fill="none" xmlns="http://www.w3.org/2000/svg">
<g id="spaceship">
<g id="Power">
<path id="Vector" d="M337.5 1530C335.511 1530 333.603 1529.23 332.197 1527.87C330.79 1526.5 330 1524.64 330 1522.71V1209.29C330 1207.36 330.79 1205.5 332.197 1204.13C333.603 1202.77 335.511 1202 337.5 1202C339.489 1202 341.397 1202.77 342.803 1204.13C344.21 1205.5 345 1207.36 345 1209.29V1522.71C345 1524.64 344.21 1526.5 342.803 1527.87C341.397 1529.23 339.489 1530 337.5 1530V1530Z" fill="#CCCCCC"/>
<path id="Vector_2" d="M512.5 1773C510.511 1773 508.603 1772.23 507.197 1770.86C505.79 1769.49 505 1767.63 505 1765.69V1590.31C505 1588.37 505.79 1586.51 507.197 1585.14C508.603 1583.77 510.511 1583 512.5 1583C514.489 1583 516.397 1583.77 517.803 1585.14C519.21 1586.51 520 1588.37 520 1590.31V1765.69C520 1767.63 519.21 1769.49 517.803 1770.86C516.397 1772.23 514.489 1773 512.5 1773V1773Z" fill="#CCCCCC"/>
<path id="Vector_3" d="M352 946C350.144 946 348.363 945.23 347.05 943.86C345.738 942.489 345 940.63 345 938.692V763.308C345 761.37 345.737 759.511 347.05 758.14C348.363 756.77 350.143 756 352 756C353.857 756 355.637 756.77 356.95 758.14C358.263 759.511 359 761.37 359 763.308V938.692C359 940.63 358.262 942.489 356.95 943.86C355.637 945.23 353.856 946 352 946V946Z" fill="#CCCCCC"/>
<path id="Vector_4" d="M932.5 969C930.511 969 928.603 968.23 927.197 966.86C925.79 965.489 925 963.63 925 961.692V786.308C925 784.37 925.79 782.511 927.197 781.14C928.603 779.77 930.511 779 932.5 779C934.489 779 936.397 779.77 937.803 781.14C939.21 782.511 940 784.37 940 786.308V961.692C940 963.63 939.21 965.489 937.803 966.86C936.397 968.23 934.489 969 932.5 969Z" fill="#CCCCCC"/>
<path id="Vector_5" d="M918 1517C916.144 1517 914.363 1516.23 913.05 1514.86C911.738 1513.5 911 1511.64 911 1509.71V1298.29C911 1296.36 911.737 1294.5 913.05 1293.14C914.363 1291.77 916.143 1291 918 1291C919.857 1291 921.637 1291.77 922.95 1293.14C924.262 1294.5 925 1296.36 925 1298.29V1509.71C925 1511.64 924.262 1513.5 922.95 1514.86C921.637 1516.23 919.856 1517 918 1517Z" fill="#CCCCCC"/>
<path id="Vector_6" d="M772 1704C770.144 1704 768.363 1703.23 767.05 1701.86C765.738 1700.49 765 1698.63 765 1696.69V1382.31C765 1380.37 765.737 1378.51 767.05 1377.14C768.363 1375.77 770.143 1375 772 1375C773.857 1375 775.637 1375.77 776.95 1377.14C778.262 1378.51 779 1380.37 779 1382.31V1696.69C779 1698.63 778.262 1700.49 776.95 1701.86C775.637 1703.23 773.856 1704 772 1704Z" fill="#CCCCCC"/>
<path id="Vector_7" d="M503.5 1460C501.511 1460 499.603 1459.23 498.197 1457.86C496.79 1456.49 496 1454.63 496 1452.69V1021.31C496 1019.37 496.79 1017.51 498.197 1016.14C499.603 1014.77 501.511 1014 503.5 1014C505.489 1014 507.397 1014.77 508.803 1016.14C510.21 1017.51 511 1019.37 511 1021.31V1452.69C511 1454.63 510.21 1456.49 508.803 1457.86C507.397 1459.23 505.489 1460 503.5 1460Z" fill="#CCCCCC"/>
<path id="Vector_8" d="M801.5 1167C799.511 1167 797.603 1166.23 796.197 1164.86C794.79 1163.49 794 1161.63 794 1159.69V728.311C794 726.372 794.79 724.513 796.197 723.141C797.603 721.77 799.511 721 801.5 721C803.489 721 805.397 721.77 806.803 723.141C808.21 724.513 809 726.372 809 728.311V1159.69C809 1161.63 808.21 1163.49 806.803 1164.86C805.397 1166.23 803.489 1167 801.5 1167Z" fill="#CCCCCC"/>
<path id="Vector_9" d="M662.5 874C660.511 874 658.603 873.23 657.197 871.86C655.79 870.489 655 868.63 655 866.692V691.308C655 689.37 655.79 687.511 657.197 686.14C658.603 684.77 660.511 684 662.5 684C664.489 684 666.397 684.77 667.803 686.14C669.21 687.511 670 689.37 670 691.308V866.692C670 868.63 669.21 870.489 667.803 871.86C666.397 873.23 664.489 874 662.5 874V874Z" fill="#CCCCCC"/>
</g>
<g id="ship">
<path id="Vector_10" d="M657.165 633.539C294.225 633.539 0.00390625 570.513 0.00390625 492.753V586.61C0.00390625 664.37 294.225 727.396 657.165 727.396C1020.11 727.396 1314.33 664.37 1314.33 586.61V492.753C1314.33 570.513 1020.11 633.539 657.165 633.539Z" fill="#546A79"/>
<path id="Vector_11" d="M657.165 0C410.893 0 211.234 199.611 211.234 445.824L325.745 475.951C542.983 533.11 771.346 533.11 988.587 475.951L1103.1 445.824C1103.09 199.611 903.436 0 657.165 0Z" fill="#72C5EC"/>
<path id="Vector_12" d="M1099.01 388.539C1101.43 407.332 1103.09 426.362 1103.09 445.816L988.581 475.943C771.343 533.103 543.003 533.103 325.739 475.943L211.229 445.816C211.229 426.365 212.895 407.335 215.313 388.539C83.0359 414.303 0 451.447 0 492.743C0 570.503 294.221 633.529 657.161 633.529C1020.1 633.529 1314.32 570.503 1314.32 492.743C1314.32 451.447 1231.29 414.303 1099.01 388.539Z" fill="#38454F"/>
<path id="Vector_13" d="M422.467 351.967C409.511 351.967 398.996 341.478 398.996 328.502C398.996 212.048 493.769 117.322 610.227 117.322C623.183 117.322 633.698 127.81 633.698 140.786C633.698 153.762 623.183 164.251 610.227 164.251C519.634 164.251 445.937 237.954 445.937 328.502C445.937 341.478 435.422 351.967 422.467 351.967Z" fill="#F1F1F1" fill-opacity="0.26"/>
</g>
</g>
</svg>
