<svg width="1315" height="1905" viewBox="0 0 1315 1905" fill="none" xmlns="http://www.w3.org/2000/svg">
<g id="spaceship - optimized">
<g id="Power">
<path id="Vector" d="M337.5 1662C335.511 1662 333.603 1661.23 332.197 1659.87C330.79 1658.5 330 1656.64 330 1654.71V1341.29C330 1339.36 330.79 1337.5 332.197 1336.13C333.603 1334.77 335.511 1334 337.5 1334C339.489 1334 341.397 1334.77 342.803 1336.13C344.21 1337.5 345 1339.36 345 1341.29V1654.71C345 1656.64 344.21 1658.5 342.803 1659.87C341.397 1661.23 339.489 1662 337.5 1662V1662Z" fill="#CCCCCC"/>
<path id="Vector_2" d="M512.5 1905C510.511 1905 508.603 1904.23 507.197 1902.86C505.79 1901.49 505 1899.63 505 1897.69V1722.31C505 1720.37 505.79 1718.51 507.197 1717.14C508.603 1715.77 510.511 1715 512.5 1715C514.489 1715 516.397 1715.77 517.803 1717.14C519.21 1718.51 520 1720.37 520 1722.31V1897.69C520 1899.63 519.21 1901.49 517.803 1902.86C516.397 1904.23 514.489 1905 512.5 1905V1905Z" fill="#CCCCCC"/>
<path id="Vector_3" d="M352 1078C350.144 1078 348.363 1077.23 347.05 1075.86C345.738 1074.49 345 1072.63 345 1070.69V895.308C345 893.37 345.737 891.511 347.05 890.14C348.363 888.77 350.143 888 352 888C353.857 888 355.637 888.77 356.95 890.14C358.263 891.511 359 893.37 359 895.308V1070.69C359 1072.63 358.262 1074.49 356.95 1075.86C355.637 1077.23 353.856 1078 352 1078V1078Z" fill="#CCCCCC"/>
<path id="Vector_4" d="M932.5 1101C930.511 1101 928.603 1100.23 927.197 1098.86C925.79 1097.49 925 1095.63 925 1093.69V918.308C925 916.37 925.79 914.511 927.197 913.14C928.603 911.77 930.511 911 932.5 911C934.489 911 936.397 911.77 937.803 913.14C939.21 914.511 940 916.37 940 918.308V1093.69C940 1095.63 939.21 1097.49 937.803 1098.86C936.397 1100.23 934.489 1101 932.5 1101Z" fill="#CCCCCC"/>
<path id="Vector_5" d="M918 1649C916.144 1649 914.363 1648.23 913.05 1646.86C911.738 1645.5 911 1643.64 911 1641.71V1430.29C911 1428.36 911.737 1426.5 913.05 1425.14C914.363 1423.77 916.143 1423 918 1423C919.857 1423 921.637 1423.77 922.95 1425.14C924.262 1426.5 925 1428.36 925 1430.29V1641.71C925 1643.64 924.262 1645.5 922.95 1646.86C921.637 1648.23 919.856 1649 918 1649Z" fill="#CCCCCC"/>
<path id="Vector_6" d="M772 1836C770.144 1836 768.363 1835.23 767.05 1833.86C765.738 1832.49 765 1830.63 765 1828.69V1514.31C765 1512.37 765.737 1510.51 767.05 1509.14C768.363 1507.77 770.143 1507 772 1507C773.857 1507 775.637 1507.77 776.95 1509.14C778.262 1510.51 779 1512.37 779 1514.31V1828.69C779 1830.63 778.262 1832.49 776.95 1833.86C775.637 1835.23 773.856 1836 772 1836Z" fill="#CCCCCC"/>
<path id="Vector_7" d="M503.5 1592C501.511 1592 499.603 1591.23 498.197 1589.86C496.79 1588.49 496 1586.63 496 1584.69V1153.31C496 1151.37 496.79 1149.51 498.197 1148.14C499.603 1146.77 501.511 1146 503.5 1146C505.489 1146 507.397 1146.77 508.803 1148.14C510.21 1149.51 511 1151.37 511 1153.31V1584.69C511 1586.63 510.21 1588.49 508.803 1589.86C507.397 1591.23 505.489 1592 503.5 1592Z" fill="#CCCCCC"/>
<path id="Vector_8" d="M801.5 1299C799.511 1299 797.603 1298.23 796.197 1296.86C794.79 1295.49 794 1293.63 794 1291.69V860.311C794 858.372 794.79 856.513 796.197 855.141C797.603 853.77 799.511 853 801.5 853C803.489 853 805.397 853.77 806.803 855.141C808.21 856.513 809 858.372 809 860.311V1291.69C809 1293.63 808.21 1295.49 806.803 1296.86C805.397 1298.23 803.489 1299 801.5 1299Z" fill="#CCCCCC"/>
<path id="Vector_9" d="M662.5 1006C660.511 1006 658.603 1005.23 657.197 1003.86C655.79 1002.49 655 1000.63 655 998.692V823.308C655 821.37 655.79 819.511 657.197 818.14C658.603 816.77 660.511 816 662.5 816C664.489 816 666.397 816.77 667.803 818.14C669.21 819.511 670 821.37 670 823.308V998.692C670 1000.63 669.21 1002.49 667.803 1003.86C666.397 1005.23 664.489 1006 662.5 1006V1006Z" fill="#CCCCCC"/>
</g>
<g id="ship">
<path id="Vector_10" d="M657.165 765.539C294.225 765.539 0.00390625 702.513 0.00390625 624.753V718.61C0.00390625 796.37 294.225 859.396 657.165 859.396C1020.11 859.396 1314.33 796.37 1314.33 718.61V624.753C1314.33 702.513 1020.11 765.539 657.165 765.539Z" fill="#546A79"/>
<path id="Vector_11" d="M657.165 132C410.893 132 211.234 331.611 211.234 577.824L325.745 607.951C542.983 665.11 771.346 665.11 988.587 607.951L1103.1 577.824C1103.09 331.611 903.436 132 657.165 132Z" fill="#72C5EC"/>
<path id="Vector_12" d="M1099.01 520.539C1101.43 539.332 1103.09 558.362 1103.09 577.816L988.581 607.943C771.343 665.103 543.003 665.103 325.739 607.943L211.229 577.816C211.229 558.365 212.895 539.335 215.313 520.539C83.0359 546.303 0 583.447 0 624.743C0 702.503 294.221 765.529 657.161 765.529C1020.1 765.529 1314.32 702.503 1314.32 624.743C1314.32 583.447 1231.29 546.303 1099.01 520.539Z" fill="#38454F"/>
<path id="Vector_13" d="M422.467 483.967C409.511 483.967 398.996 473.478 398.996 460.502C398.996 344.048 493.769 249.322 610.227 249.322C623.183 249.322 633.698 259.81 633.698 272.786C633.698 285.762 623.183 296.251 610.227 296.251C519.634 296.251 445.937 369.954 445.937 460.502C445.937 473.478 435.422 483.967 422.467 483.967Z" fill="#F1F1F1" fill-opacity="0.26"/>
</g>
</g>
</svg>
